{
    "accessors": {
        "accessor_36": {
            "bufferView": "bufferView_58",
            "byteOffset": 211584,
            "byteStride": 0,
            "componentType": 5123,
            "count": 672,
            "type": "SCALAR"
        },
        "accessor_38": {
            "bufferView": "bufferView_59",
            "byteOffset": 1692672,
            "byteStride": 12,
            "componentType": 5126,
            "count": 524,
            "max": [
                0.944876,
                0.988244,
                1
            ],
            "min": [
                -0.944876,
                -40.0229,
                -1.19161
            ],
            "type": "VEC3"
        },
        "accessor_40": {
            "bufferView": "bufferView_59",
            "byteOffset": 1698960,
            "byteStride": 12,
            "componentType": 5126,
            "count": 524,
            "max": [
                0.984006,
                1,
                1
            ],
            "min": [
                -0.984006,
                -1,
                -1
            ],
            "type": "VEC3"
        },
        "accessor_44": {
            "bufferView": "bufferView_58",
            "byteOffset": 0,
            "byteStride": 0,
            "componentType": 5123,
            "count": 98298,
            "type": "SCALAR"
        },
        "accessor_46": {
            "bufferView": "bufferView_59",
            "byteOffset": 0,
            "byteStride": 12,
            "componentType": 5126,
            "count": 65532,
            "max": [
                10.5965,
                16.7393,
                0.370719
            ],
            "min": [
                -18.4554,
                -15.241,
                -0.652118
            ],
            "type": "VEC3"
        },
        "accessor_48": {
            "bufferView": "bufferView_59",
            "byteOffset": 786384,
            "byteStride": 12,
            "componentType": 5126,
            "count": 65532,
            "max": [
                0.999786,
                0.999969,
                0.999969
            ],
            "min": [
                -0.999939,
                -0.999939,
                -1
            ],
            "type": "VEC3"
        },
        "accessor_52": {
            "bufferView": "bufferView_58",
            "byteOffset": 196596,
            "byteStride": 0,
            "componentType": 5123,
            "count": 7494,
            "type": "SCALAR"
        },
        "accessor_54": {
            "bufferView": "bufferView_59",
            "byteOffset": 1572768,
            "byteStride": 12,
            "componentType": 5126,
            "count": 4996,
            "max": [
                -1.15827,
                0.651843,
                -0.03273
            ],
            "min": [
                -18.4554,
                -1.74675,
                -0.159594
            ],
            "type": "VEC3"
        },
        "accessor_56": {
            "bufferView": "bufferView_59",
            "byteOffset": 1632720,
            "byteStride": 12,
            "componentType": 5126,
            "count": 4996,
            "max": [
                0.993988,
                0.999756,
                0.988464
            ],
            "min": [
                -0.007416,
                -0.995239,
                -0.999969
            ],
            "type": "VEC3"
        }
    },
    "animations": {},
    "asset": {
        "generator": "collada2gltf@173625dc5ff1b7e8046666be1f3ca2835512ac08",
        "premultipliedAlpha": true,
        "profile": "WebGL 1.0.2",
        "version": 0.8
    },
    "bufferViews": {
        "bufferView_58": {
            "buffer": "Model",
            "byteLength": 212928,
            "byteOffset": 0,
            "target": 34963
        },
        "bufferView_59": {
            "buffer": "Model",
            "byteLength": 1705248,
            "byteOffset": 212928,
            "target": 34962
        }
    },
    "buffers": {
        "Model": {
            "byteLength": 1918176,
            "type": "arraybuffer",
            "uri": "data:application/octet-stream;base64,"
        }
    },
    "cameras": {
        "camera_0": {
            "perspective": {
                "aspect_ratio": 1.33333,
                "yfov": 49.1343,
                "zfar": 100,
                "znear": 0.1
            },
            "type": "perspective"
        }
    },
    "lights": {
        "Lamp-light": {
            "directional": {
                "color": [
                    1,
                    1,
                    1
                ]
            },
            "type": "directional"
        }
    },
    "materials": {
        "windmill-fx": {
            "instanceTechnique": {
                "technique": "technique0",
                "values": {
                    "ambient": [
                        0,
                        0,
                        0,
                        1
                    ],
                    "diffuse": [
                        1,
                        1,
                        1,
                        1
                    ],
                    "emission": [
                        0,
                        0,
                        0,
                        1
                    ],
                    "shininess": 22.9412,
                    "specular": [
                        1,
                        1,
                        1,
                        1
                    ]
                }
            },
            "name": "windmill"
        }
    },
    "meshes": {
        "Blades-lib": {
            "name": "BladesMesh",
            "primitives": [
                {
                    "attributes": {
                        "NORMAL": "accessor_48",
                        "POSITION": "accessor_46"
                    },
                    "indices": "accessor_44",
                    "material": "windmill-fx",
                    "primitive": 4
                }
            ]
        },
        "Blades-libsplit_0": {
            "name": "BladesMesh1",
            "primitives": [
                {
                    "attributes": {
                        "NORMAL": "accessor_56",
                        "POSITION": "accessor_54"
                    },
                    "indices": "accessor_52",
                    "material": "windmill-fx",
                    "primitive": 4
                }
            ]
        },
        "Pole-lib": {
            "name": "PoleMesh",
            "primitives": [
                {
                    "attributes": {
                        "NORMAL": "accessor_40",
                        "POSITION": "accessor_38"
                    },
                    "indices": "accessor_36",
                    "material": "windmill-fx",
                    "primitive": 4
                }
            ]
        }
    },
    "nodes": {
        "Blades": {
            "children": [],
            "matrix": [
                -0.237192,
                0,
                0,
                0,
                0,
                0.237192,
                0,
                0,
                -0,
                0,
                -0.567604,
                0,
                -0,
                9,
                0.770194,
                1
            ],
            "meshes": [
                "Blades-lib",
                "Blades-libsplit_0"
            ],
            "name": "Blades"
        },
        "Camera": {
            "camera": "camera_0",
            "children": [],
            "matrix": [
                -0.823875,
                0.010816,
                -0.566668,
                0,
                0.260315,
                0.895343,
                -0.361381,
                0,
                0.503453,
                -0.445246,
                -0.740467,
                0,
                -15.3677,
                19.4112,
                24.1625,
                1
            ],
            "name": "Camera"
        },
        "Lamp": {
            "children": [],
            "light": "Lamp-light",
            "matrix": [
                0.79495,
                -0.055184,
                0.60416,
                0,
                -0.508175,
                -0.604528,
                0.613437,
                0,
                0.331379,
                -0.79467,
                -0.508612,
                0,
                -4.07625,
                5.90386,
                1.00545,
                1
            ],
            "name": "Lamp"
        },
        "Pole": {
            "children": [],
            "matrix": [
                -0.305846,
                0,
                0,
                0,
                0,
                0.305846,
                -0,
                0,
                -0,
                -0,
                -0.561105,
                0,
                0,
                9,
                0,
                1
            ],
            "meshes": [
                "Pole-lib"
            ],
            "name": "Pole"
        }
    },
    "programs": {
        "program_0": {
            "attributes": [
                "a_normal",
                "a_position"
            ],
            "fragmentShader": "Model0FS",
            "vertexShader": "Model0VS"
        }
    },
    "scene": "defaultScene",
    "scenes": {
        "defaultScene": {
            "nodes": [
                "Blades",
                "Pole",
                "Lamp",
                "Camera"
            ]
        }
    },
    "shaders": {
        "Model0FS": {
            "type": 35632,
            "uri": "data:text/plain;base64,"
        },
        "Model0VS": {
            "type": 35633,
            "uri": "data:text/plain;base64,"
        }
    },
    "skins": {},
    "techniques": {
        "technique0": {
            "parameters": {
                "ambient": {
                    "type": 35666
                },
                "diffuse": {
                    "type": 35666
                },
                "emission": {
                    "type": 35666
                },
                "light0Color": {
                    "type": 35665,
                    "value": [
                        1,
                        1,
                        1
                    ]
                },
                "light0Transform": {
                    "semantic": "MODELVIEW",
                    "source": "Lamp",
                    "type": 35676
                },
                "modelViewMatrix": {
                    "semantic": "MODELVIEW",
                    "type": 35676
                },
                "normal": {
                    "semantic": "NORMAL",
                    "type": 35665
                },
                "normalMatrix": {
                    "semantic": "MODELVIEWINVERSETRANSPOSE",
                    "type": 35675
                },
                "position": {
                    "semantic": "POSITION",
                    "type": 35665
                },
                "projectionMatrix": {
                    "semantic": "PROJECTION",
                    "type": 35676
                },
                "shininess": {
                    "type": 5126
                },
                "specular": {
                    "type": 35666
                }
            },
            "pass": "defaultPass",
            "passes": {
                "defaultPass": {
                    "details": {
                        "commonProfile": {
                            "extras": {
                                "doubleSided": false
                            },
                            "lightingModel": "Phong",
                            "parameters": [
                                "ambient",
                                "diffuse",
                                "emission",
                                "light0Color",
                                "light0Transform",
                                "modelViewMatrix",
                                "normalMatrix",
                                "projectionMatrix",
                                "shininess",
                                "specular"
                            ]
                        },
                        "type": "COLLADA-1.4.1/commonProfile"
                    },
                    "instanceProgram": {
                        "attributes": {
                            "a_normal": "normal",
                            "a_position": "position"
                        },
                        "program": "program_0",
                        "uniforms": {
                            "u_ambient": "ambient",
                            "u_diffuse": "diffuse",
                            "u_emission": "emission",
                            "u_light0Color": "light0Color",
                            "u_light0Transform": "light0Transform",
                            "u_modelViewMatrix": "modelViewMatrix",
                            "u_normalMatrix": "normalMatrix",
                            "u_projectionMatrix": "projectionMatrix",
                            "u_shininess": "shininess",
                            "u_specular": "specular"
                        }
                    },
                    "states": {
                        "enable": [
                            2884,
                            2929
                        ]
                    }
                }
            }
        }
    }
}